<?xml version="1.0" encoding="UTF-8" standalone="no"?>
<!DOCTYPE svg PUBLIC "-//W3C//DTD SVG 1.1//EN"
 "http://www.w3.org/Graphics/SVG/1.1/DTD/svg11.dtd">
<!-- Generated by graphviz version 13.1.0 (20250701.0955)
 -->
<!-- Title: ags02ma_read_test Pages: 1 -->
<svg width="291pt" height="594pt"
 viewBox="0.00 0.00 291.00 594.00" xmlns="http://www.w3.org/2000/svg" xmlns:xlink="http://www.w3.org/1999/xlink">
<g id="graph0" class="graph" transform="scale(1 1) rotate(0) translate(4 590)">
<title>ags02ma_read_test</title>
<!-- Node1 -->
<g id="Node000001" class="node">
<title>Node1</title>
<g id="a_Node000001"><a xlink:title="read test">
<polygon fill="#999999" stroke="#666666" points="101.5,-324 0,-324 0,-304 101.5,-304 101.5,-324"/>
<text xml:space="preserve" text-anchor="middle" x="50.75" y="-310.5" font-family="Helvetica,sans-Serif" font-size="10.00">ags02ma_read_test</text>
</a>
</g>
</g>
<!-- Node2 -->
<g id="Node000002" class="node">
<title>Node2</title>
<g id="a_Node000002"><a xlink:href="group__ags02ma__base__driver.html#ga8c691c74fc03c33a47ceb598879850ff" target="_top" xlink:title="close the chip">
<polygon fill="white" stroke="#666666" points="252.5,-586 168.25,-586 168.25,-566 252.5,-566 252.5,-586"/>
<text xml:space="preserve" text-anchor="middle" x="210.38" y="-572.5" font-family="Helvetica,sans-Serif" font-size="10.00">ags02ma_deinit</text>
</a>
</g>
</g>
<!-- Node1&#45;&gt;Node2 -->
<g id="edge1_Node000001_Node000002" class="edge">
<title>Node1&#45;&gt;Node2</title>
<g id="a_edge1_Node000001_Node000002"><a xlink:title=" ">
<path fill="none" stroke="#63b8ff" d="M52.13,-324.36C54.09,-361.75 65.97,-491.03 137.5,-557 143.11,-562.17 149.96,-565.97 157.18,-568.75"/>
<polygon fill="#63b8ff" stroke="#63b8ff" points="155.89,-572.02 166.48,-571.69 158,-565.34 155.89,-572.02"/>
</a>
</g>
</g>
<!-- Node3 -->
<g id="Node000003" class="node">
<title>Node3</title>
<g id="a_Node000003"><a xlink:href="group__ags02ma__base__driver.html#ga9eea2a422d3b9ab229a9246ad22e012f" target="_top" xlink:title="get resistance">
<polygon fill="white" stroke="#666666" points="272.75,-548 148,-548 148,-528 272.75,-528 272.75,-548"/>
<text xml:space="preserve" text-anchor="middle" x="210.38" y="-534.5" font-family="Helvetica,sans-Serif" font-size="10.00">ags02ma_get_resistance</text>
</a>
</g>
</g>
<!-- Node1&#45;&gt;Node3 -->
<g id="edge2_Node000001_Node000003" class="edge">
<title>Node1&#45;&gt;Node3</title>
<g id="a_edge2_Node000001_Node000003"><a xlink:title=" ">
<path fill="none" stroke="#63b8ff" d="M52.89,-324.36C57.15,-357.96 75.24,-464.78 137.5,-519 138.62,-519.98 139.79,-520.91 140.99,-521.79"/>
<polygon fill="#63b8ff" stroke="#63b8ff" points="139.2,-524.79 149.58,-526.89 142.77,-518.77 139.2,-524.79"/>
</a>
</g>
</g>
<!-- Node4 -->
<g id="Node000004" class="node">
<title>Node4</title>
<g id="a_Node000004"><a xlink:href="group__ags02ma__base__driver.html#ga65e326cae46728a02976a239a9fd213e" target="_top" xlink:title="get version">
<polygon fill="white" stroke="#666666" points="266,-510 154.75,-510 154.75,-490 266,-490 266,-510"/>
<text xml:space="preserve" text-anchor="middle" x="210.38" y="-496.5" font-family="Helvetica,sans-Serif" font-size="10.00">ags02ma_get_version</text>
</a>
</g>
</g>
<!-- Node1&#45;&gt;Node4 -->
<g id="edge3_Node000001_Node000004" class="edge">
<title>Node1&#45;&gt;Node4</title>
<g id="a_edge3_Node000001_Node000004"><a xlink:title=" ">
<path fill="none" stroke="#63b8ff" d="M53.9,-324.08C60.63,-353.21 84.17,-438.1 137.5,-481 139.62,-482.71 141.88,-484.26 144.24,-485.68"/>
<polygon fill="#63b8ff" stroke="#63b8ff" points="142.56,-488.75 153.07,-490.07 145.68,-482.48 142.56,-488.75"/>
</a>
</g>
</g>
<!-- Node5 -->
<g id="Node000005" class="node">
<title>Node5</title>
<g id="a_Node000005"><a xlink:href="group__ags02ma__base__driver.html#ga01aabaf1089c561a025b569fd9ccee73" target="_top" xlink:title="get chip&#39;s information">
<polygon fill="white" stroke="#666666" points="248.75,-472 172,-472 172,-452 248.75,-452 248.75,-472"/>
<text xml:space="preserve" text-anchor="middle" x="210.38" y="-458.5" font-family="Helvetica,sans-Serif" font-size="10.00">ags02ma_info</text>
</a>
</g>
</g>
<!-- Node1&#45;&gt;Node5 -->
<g id="edge4_Node000001_Node000005" class="edge">
<title>Node1&#45;&gt;Node5</title>
<g id="a_edge4_Node000001_Node000005"><a xlink:title=" ">
<path fill="none" stroke="#63b8ff" d="M55.55,-324.21C65.2,-348.73 93.11,-411.22 137.5,-443 144.43,-447.96 152.57,-451.63 160.84,-454.34"/>
<polygon fill="#63b8ff" stroke="#63b8ff" points="159.65,-457.64 170.22,-456.97 161.54,-450.9 159.65,-457.64"/>
</a>
</g>
</g>
<!-- Node6 -->
<g id="Node000006" class="node">
<title>Node6</title>
<g id="a_Node000006"><a xlink:href="group__ags02ma__base__driver.html#gad0c564e074787e0022c1301b25f28bbb" target="_top" xlink:title="initialize the chip">
<polygon fill="white" stroke="#666666" points="247.25,-434 173.5,-434 173.5,-414 247.25,-414 247.25,-434"/>
<text xml:space="preserve" text-anchor="middle" x="210.38" y="-420.5" font-family="Helvetica,sans-Serif" font-size="10.00">ags02ma_init</text>
</a>
</g>
</g>
<!-- Node1&#45;&gt;Node6 -->
<g id="edge5_Node000001_Node000006" class="edge">
<title>Node1&#45;&gt;Node6</title>
<g id="a_edge5_Node000001_Node000006"><a xlink:title=" ">
<path fill="none" stroke="#63b8ff" d="M58.43,-324.22C71.36,-343.16 101.68,-383.69 137.5,-405 144.98,-409.45 153.51,-412.88 162.01,-415.51"/>
<polygon fill="#63b8ff" stroke="#63b8ff" points="161.06,-418.87 171.63,-418.13 162.9,-412.12 161.06,-418.87"/>
</a>
</g>
</g>
<!-- Node7 -->
<g id="Node000007" class="node">
<title>Node7</title>
<g id="a_Node000007"><a xlink:href="group__ags02ma__interface__driver.html#ga20e53d10669fbad53f3b72d4aa69d1a5" target="_top" xlink:title="interface print format data">
<polygon fill="white" stroke="#666666" points="275.38,-396 145.38,-396 145.38,-364 275.38,-364 275.38,-396"/>
<text xml:space="preserve" text-anchor="start" x="153.38" y="-382.5" font-family="Helvetica,sans-Serif" font-size="10.00">ags02ma_interface_debug</text>
<text xml:space="preserve" text-anchor="middle" x="210.38" y="-370.5" font-family="Helvetica,sans-Serif" font-size="10.00">_print</text>
</a>
</g>
</g>
<!-- Node1&#45;&gt;Node7 -->
<g id="edge6_Node000001_Node000007" class="edge">
<title>Node1&#45;&gt;Node7</title>
<g id="a_edge6_Node000001_Node000007"><a xlink:title=" ">
<path fill="none" stroke="#63b8ff" d="M71.91,-324.42C89.1,-333.12 114.61,-345.58 137.5,-355 141.26,-356.55 145.16,-358.09 149.11,-359.6"/>
<polygon fill="#63b8ff" stroke="#63b8ff" points="147.6,-362.77 158.19,-362.97 150.04,-356.21 147.6,-362.77"/>
</a>
</g>
</g>
<!-- Node8 -->
<g id="Node000008" class="node">
<title>Node8</title>
<g id="a_Node000008"><a xlink:href="group__ags02ma__interface__driver.html#gafac4f4fc3bda670d839623c8167148ca" target="_top" xlink:title="interface delay ms">
<polygon fill="white" stroke="#666666" points="283.25,-346 137.5,-346 137.5,-326 283.25,-326 283.25,-346"/>
<text xml:space="preserve" text-anchor="middle" x="210.38" y="-332.5" font-family="Helvetica,sans-Serif" font-size="10.00">ags02ma_interface_delay_ms</text>
</a>
</g>
</g>
<!-- Node1&#45;&gt;Node8 -->
<g id="edge7_Node000001_Node000008" class="edge">
<title>Node1&#45;&gt;Node8</title>
<g id="a_edge7_Node000001_Node000008"><a xlink:title=" ">
<path fill="none" stroke="#63b8ff" d="M101.62,-320.96C109.37,-322.04 117.56,-323.19 125.81,-324.34"/>
<polygon fill="#63b8ff" stroke="#63b8ff" points="125.19,-327.78 135.58,-325.7 126.16,-320.85 125.19,-327.78"/>
</a>
</g>
</g>
<!-- Node9 -->
<g id="Node000009" class="node">
<title>Node9</title>
<g id="a_Node000009"><a xlink:href="group__ags02ma__interface__driver.html#gaf773096ad89763236f9ad4b34710534f" target="_top" xlink:title="interface iic bus deinit">
<polygon fill="white" stroke="#666666" points="267.12,-308 153.62,-308 153.62,-276 267.12,-276 267.12,-308"/>
<text xml:space="preserve" text-anchor="start" x="161.62" y="-294.5" font-family="Helvetica,sans-Serif" font-size="10.00">ags02ma_interface_iic</text>
<text xml:space="preserve" text-anchor="middle" x="210.38" y="-282.5" font-family="Helvetica,sans-Serif" font-size="10.00">_deinit</text>
</a>
</g>
</g>
<!-- Node1&#45;&gt;Node9 -->
<g id="edge8_Node000001_Node000009" class="edge">
<title>Node1&#45;&gt;Node9</title>
<g id="a_edge8_Node000001_Node000009"><a xlink:title=" ">
<path fill="none" stroke="#63b8ff" d="M101.62,-307.04C114.45,-305.25 128.46,-303.29 142.01,-301.4"/>
<polygon fill="#63b8ff" stroke="#63b8ff" points="142.33,-304.89 151.75,-300.04 141.36,-297.96 142.33,-304.89"/>
</a>
</g>
</g>
<!-- Node10 -->
<g id="Node000010" class="node">
<title>Node10</title>
<g id="a_Node000010"><a xlink:href="group__ags02ma__interface__driver.html#gaf3561b76b56e0c79b7f14c005937f95a" target="_top" xlink:title="interface iic bus init">
<polygon fill="white" stroke="#666666" points="276.12,-258 144.62,-258 144.62,-238 276.12,-238 276.12,-258"/>
<text xml:space="preserve" text-anchor="middle" x="210.38" y="-244.5" font-family="Helvetica,sans-Serif" font-size="10.00">ags02ma_interface_iic_init</text>
</a>
</g>
</g>
<!-- Node1&#45;&gt;Node10 -->
<g id="edge9_Node000001_Node000010" class="edge">
<title>Node1&#45;&gt;Node10</title>
<g id="a_edge9_Node000001_Node000010"><a xlink:title=" ">
<path fill="none" stroke="#63b8ff" d="M67.93,-303.57C84.74,-293.11 112.12,-277.14 137.5,-267 142.21,-265.12 147.17,-263.37 152.19,-261.75"/>
<polygon fill="#63b8ff" stroke="#63b8ff" points="153.2,-265.1 161.76,-258.86 151.17,-258.4 153.2,-265.1"/>
</a>
</g>
</g>
<!-- Node11 -->
<g id="Node000011" class="node">
<title>Node11</title>
<g id="a_Node000011"><a xlink:href="group__ags02ma__interface__driver.html#ga4b5ae608f3186006672457ef90068b25" target="_top" xlink:title="interface iic bus read command">
<polygon fill="white" stroke="#666666" points="267.12,-220 153.62,-220 153.62,-188 267.12,-188 267.12,-220"/>
<text xml:space="preserve" text-anchor="start" x="161.62" y="-206.5" font-family="Helvetica,sans-Serif" font-size="10.00">ags02ma_interface_iic</text>
<text xml:space="preserve" text-anchor="middle" x="210.38" y="-194.5" font-family="Helvetica,sans-Serif" font-size="10.00">_read_cmd</text>
</a>
</g>
</g>
<!-- Node1&#45;&gt;Node11 -->
<g id="edge10_Node000001_Node000011" class="edge">
<title>Node1&#45;&gt;Node11</title>
<g id="a_edge10_Node000001_Node000011"><a xlink:title=" ">
<path fill="none" stroke="#63b8ff" d="M59.61,-303.61C73.49,-285.92 104.07,-249.86 137.5,-229 139.51,-227.74 141.6,-226.54 143.74,-225.39"/>
<polygon fill="#63b8ff" stroke="#63b8ff" points="145.22,-228.56 152.68,-221.04 142.15,-222.27 145.22,-228.56"/>
</a>
</g>
</g>
<!-- Node12 -->
<g id="Node000012" class="node">
<title>Node12</title>
<g id="a_Node000012"><a xlink:href="group__ags02ma__interface__driver.html#ga3c9af05d48a3aec3fd84e4b77bba56af" target="_top" xlink:title="interface iic bus write">
<polygon fill="white" stroke="#666666" points="267.12,-170 153.62,-170 153.62,-138 267.12,-138 267.12,-170"/>
<text xml:space="preserve" text-anchor="start" x="161.62" y="-156.5" font-family="Helvetica,sans-Serif" font-size="10.00">ags02ma_interface_iic</text>
<text xml:space="preserve" text-anchor="middle" x="210.38" y="-144.5" font-family="Helvetica,sans-Serif" font-size="10.00">_write</text>
</a>
</g>
</g>
<!-- Node1&#45;&gt;Node12 -->
<g id="edge11_Node000001_Node000012" class="edge">
<title>Node1&#45;&gt;Node12</title>
<g id="a_edge11_Node000001_Node000012"><a xlink:title=" ">
<path fill="none" stroke="#63b8ff" d="M55.57,-303.54C65.28,-278.38 93.31,-213.99 137.5,-179 139.44,-177.47 141.47,-176.02 143.58,-174.67"/>
<polygon fill="#63b8ff" stroke="#63b8ff" points="144.91,-177.93 151.93,-169.99 141.49,-171.83 144.91,-177.93"/>
</a>
</g>
</g>
<!-- Node13 -->
<g id="Node000013" class="node">
<title>Node13</title>
<g id="a_Node000013"><a xlink:href="group__ags02ma__interface__driver.html#gab33dcd579577e475edc96de0d81cecde" target="_top" xlink:title="interface iic bus write command">
<polygon fill="white" stroke="#666666" points="267.12,-120 153.62,-120 153.62,-88 267.12,-88 267.12,-120"/>
<text xml:space="preserve" text-anchor="start" x="161.62" y="-106.5" font-family="Helvetica,sans-Serif" font-size="10.00">ags02ma_interface_iic</text>
<text xml:space="preserve" text-anchor="middle" x="210.38" y="-94.5" font-family="Helvetica,sans-Serif" font-size="10.00">_write_cmd</text>
</a>
</g>
</g>
<!-- Node1&#45;&gt;Node13 -->
<g id="edge12_Node000001_Node000013" class="edge">
<title>Node1&#45;&gt;Node13</title>
<g id="a_edge12_Node000001_Node000013"><a xlink:title=" ">
<path fill="none" stroke="#63b8ff" d="M53.63,-303.51C59.78,-272.3 82.13,-179.13 137.5,-129 139.41,-127.27 141.45,-125.66 143.58,-124.16"/>
<polygon fill="#63b8ff" stroke="#63b8ff" points="145.36,-127.17 152.14,-119.04 141.76,-121.17 145.36,-127.17"/>
</a>
</g>
</g>
<!-- Node14 -->
<g id="Node000014" class="node">
<title>Node14</title>
<g id="a_Node000014"><a xlink:href="group__ags02ma__base__driver.html#ga3c83c0489bf95bc878307d74ec73b864" target="_top" xlink:title="modify slave address">
<polygon fill="white" stroke="#666666" points="269.75,-70 151,-70 151,-38 269.75,-38 269.75,-70"/>
<text xml:space="preserve" text-anchor="start" x="159" y="-56.5" font-family="Helvetica,sans-Serif" font-size="10.00">ags02ma_modify_slave</text>
<text xml:space="preserve" text-anchor="middle" x="210.38" y="-44.5" font-family="Helvetica,sans-Serif" font-size="10.00">_address</text>
</a>
</g>
</g>
<!-- Node1&#45;&gt;Node14 -->
<g id="edge13_Node000001_Node000014" class="edge">
<title>Node1&#45;&gt;Node14</title>
<g id="a_edge13_Node000001_Node000014"><a xlink:title=" ">
<path fill="none" stroke="#63b8ff" d="M52.44,-303.9C55.43,-268 70.36,-145.13 137.5,-79 138.71,-77.81 139.97,-76.68 141.29,-75.6"/>
<polygon fill="#63b8ff" stroke="#63b8ff" points="143.07,-78.62 149.36,-70.09 139.12,-72.84 143.07,-78.62"/>
</a>
</g>
</g>
<!-- Node15 -->
<g id="Node000015" class="node">
<title>Node15</title>
<g id="a_Node000015"><a xlink:href="group__ags02ma__base__driver.html#ga712c274bed35425be84899e0685996a8" target="_top" xlink:title="read tvoc">
<polygon fill="white" stroke="#666666" points="262.25,-20 158.5,-20 158.5,0 262.25,0 262.25,-20"/>
<text xml:space="preserve" text-anchor="middle" x="210.38" y="-6.5" font-family="Helvetica,sans-Serif" font-size="10.00">ags02ma_read_tvoc</text>
</a>
</g>
</g>
<!-- Node1&#45;&gt;Node15 -->
<g id="edge14_Node000001_Node000015" class="edge">
<title>Node1&#45;&gt;Node15</title>
<g id="a_edge14_Node000001_Node000015"><a xlink:title=" ">
<path fill="none" stroke="#63b8ff" d="M51.51,-303.65C51.17,-262.4 55.59,-108.19 137.5,-29 140.56,-26.05 144.02,-23.54 147.72,-21.41"/>
<polygon fill="#63b8ff" stroke="#63b8ff" points="149.06,-24.65 156.65,-17.25 146.1,-18.3 149.06,-24.65"/>
</a>
</g>
</g>
</g>
</svg>
